<svg xmlns="http://www.w3.org/2000/svg" viewBox="0 0 512 512" fill="currentColor">
  <path d="M448 0H256c-35.3 0-64 28.7-64 64v256c0 6.5 1 12.8 2.8 18.7L224 367.9V64c0-17.7 14.3-32 32-32h192c17.7 0 32 14.3 32 32v224c0 17.7-14.3 32-32 32H304c-8.8 0-16 7.2-16 16s7.2 16 16 16h144c35.3 0 64-28.7 64-64V64c0-35.3-28.7-64-64-64z"/>
  <path d="M272 80c-8.8 0-16 7.2-16 16s7.2 16 16 16h160c8.8 0 16-7.2 16-16s-7.2-16-16-16H272zm0 64c-8.8 0-16 7.2-16 16s7.2 16 16 16h160c8.8 0 16-7.2 16-16s-7.2-16-16-16H272zm0 64c-8.8 0-16 7.2-16 16s7.2 16 16 16h96c8.8 0 16-7.2 16-16s-7.2-16-16-16h-96z"/>
  <path d="M96 240c-44.2 0-80 35.8-80 80s35.8 80 80 80c15.3 0 29.5-4.3 41.7-11.7C114.8 401.9 96 427.7 96 458v38c0 8.8 7.2 16 16 16h64c8.8 0 16-7.2 16-16v-38c0-30.3-18.8-56.1-41.7-69.7 12.1 7.4 26.4 11.7 41.7 11.7 44.2 0 80-35.8 80-80s-35.8-80-80-80-80 35.8-80 80zm48 0c0-26.5 21.5-48 48-48s48 21.5 48 48-21.5 48-48 48-48-21.5-48-48zm16 218v22H32v-22c0-26.5 21.5-48 48-48h32c26.5 0 48 21.5 48 48z"/>
</svg>