<svg xmlns="http://www.w3.org/2000/svg" viewBox="0 0 512 512" fill="currentColor">
  <!-- Speech Bubble -->
  <path d="M448 0H224c-35.3 0-64 28.7-64 64v224c0 35.3 28.7 64 64 64h32v64c0 6.2 3.5 11.8 9.1 14.5 2.1 1 4.4 1.5 6.9 1.5 3.6 0 7.2-1.2 10.1-3.7l77.7-64.3H448c35.3 0 64-28.7 64-64V64c0-35.3-28.7-64-64-64zm32 288c0 17.7-14.3 32-32 32H352c-3.7 0-7.3 1.3-10.1 3.7L288 368.5V336c0-8.8-7.2-16-16-16h-48c-17.7 0-32-14.3-32-32V64c0-17.7 14.3-32 32-32h224c17.7 0 32 14.3 32 32v224z"/>
  
  <!-- Speech Bubble Lines -->
  <path d="M256 80c-8.8 0-16 7.2-16 16s7.2 16 16 16h160c8.8 0 16-7.2 16-16s-7.2-16-16-16H256zm0 64c-8.8 0-16 7.2-16 16s7.2 16 16 16h160c8.8 0 16-7.2 16-16s-7.2-16-16-16H256zm0 64c-8.8 0-16 7.2-16 16s7.2 16 16 16h96c8.8 0 16-7.2 16-16s-7.2-16-16-16h-96z"/>
  
  <!-- Person Icon -->
  <circle cx="96" cy="336" r="48"/>
  <path d="M192 448c0-26.5-21.5-48-48-48H48c-26.5 0-48 21.5-48 48v32c0 17.7 14.3 32 32 32h128c17.7 0 32-14.3 32-32v-32z"/>
</svg>